TITLE ""
FILE "LR_black_phrase_S03.mp3" MP3
  TRACK 01 AUDIO
    TITLE "LR_black_phrase_S03_001"
    INDEX 01 00:00:00
  TRACK 02 AUDIO
    TITLE "LR_black_phrase_S03_002"
    INDEX 01 00:00:10
  TRACK 03 AUDIO
    TITLE "LR_black_phrase_S03_003"
    INDEX 01 00:01:27
  TRACK 04 AUDIO
    TITLE "LR_black_phrase_S03_004"
    INDEX 01 00:01:63
  TRACK 05 AUDIO
    TITLE "LR_black_phrase_S03_005"
    INDEX 01 00:04:65
  TRACK 06 AUDIO
    TITLE "LR_black_phrase_S03_006"
    INDEX 01 00:05:64
  TRACK 07 AUDIO
    TITLE "LR_black_phrase_S03_007"
    INDEX 01 00:07:73
  TRACK 08 AUDIO
    TITLE "LR_black_phrase_S03_008"
    INDEX 01 00:08:31
  TRACK 09 AUDIO
    TITLE "LR_black_phrase_S03_009"
    INDEX 01 00:10:38
  TRACK 10 AUDIO
    TITLE "LR_black_phrase_S03_010"
    INDEX 01 00:10:60
  TRACK 11 AUDIO
    TITLE "LR_black_phrase_S03_011"
    INDEX 01 00:12:64
  TRACK 12 AUDIO
    TITLE "LR_black_phrase_S03_012"
    INDEX 01 00:13:68
  TRACK 13 AUDIO
    TITLE "LR_black_phrase_S03_013"
    INDEX 01 00:15:22
  TRACK 14 AUDIO
    TITLE "LR_black_phrase_S03_014"
    INDEX 01 00:15:59
  TRACK 15 AUDIO
    TITLE "LR_black_phrase_S03_015"
    INDEX 01 00:18:24
  TRACK 16 AUDIO
    TITLE "LR_black_phrase_S03_016"
    INDEX 01 00:19:21
  TRACK 17 AUDIO
    TITLE "LR_black_phrase_S03_017"
    INDEX 01 00:21:58
  TRACK 18 AUDIO
    TITLE "LR_black_phrase_S03_018"
    INDEX 01 00:22:24
  TRACK 19 AUDIO
    TITLE "LR_black_phrase_S03_019"
    INDEX 01 00:25:12
  TRACK 20 AUDIO
    TITLE "LR_black_phrase_S03_020"
    INDEX 01 00:25:40
  TRACK 21 AUDIO
    TITLE "LR_black_phrase_S03_021"
    INDEX 01 00:28:28
  TRACK 22 AUDIO
    TITLE "LR_black_phrase_S03_022"
    INDEX 01 00:29:28
  TRACK 23 AUDIO
    TITLE "LR_black_phrase_S03_023"
    INDEX 01 00:30:60
  TRACK 24 AUDIO
    TITLE "LR_black_phrase_S03_024"
    INDEX 01 00:31:28
  TRACK 25 AUDIO
    TITLE "LR_black_phrase_S03_025"
    INDEX 01 00:32:57
  TRACK 26 AUDIO
    TITLE "LR_black_phrase_S03_026"
    INDEX 01 00:33:57
  TRACK 27 AUDIO
    TITLE "LR_black_phrase_S03_027"
    INDEX 01 00:35:38
  TRACK 28 AUDIO
    TITLE "LR_black_phrase_S03_028"
    INDEX 01 00:35:71
  TRACK 29 AUDIO
    TITLE "LR_black_phrase_S03_029"
    INDEX 01 00:38:15
  TRACK 30 AUDIO
    TITLE "LR_black_phrase_S03_030"
    INDEX 01 00:38:36
  TRACK 31 AUDIO
    TITLE "LR_black_phrase_S03_031"
    INDEX 01 00:40:55
  TRACK 32 AUDIO
    TITLE "LR_black_phrase_S03_032"
    INDEX 01 00:41:52
  TRACK 33 AUDIO
    TITLE "LR_black_phrase_S03_033"
    INDEX 01 00:43:06
  TRACK 34 AUDIO
    TITLE "LR_black_phrase_S03_034"
    INDEX 01 00:43:43
  TRACK 35 AUDIO
    TITLE "LR_black_phrase_S03_035"
    INDEX 01 00:45:68
  TRACK 36 AUDIO
    TITLE "LR_black_phrase_S03_036"
    INDEX 01 00:46:69
  TRACK 37 AUDIO
    TITLE "LR_black_phrase_S03_037"
    INDEX 01 00:48:45
  TRACK 38 AUDIO
    TITLE "LR_black_phrase_S03_038"
    INDEX 01 00:49:03
  TRACK 39 AUDIO
    TITLE "LR_black_phrase_S03_039"
    INDEX 01 00:51:08
  TRACK 40 AUDIO
    TITLE "LR_black_phrase_S03_040"
    INDEX 01 00:51:29
  TRACK 41 AUDIO
    TITLE "LR_black_phrase_S03_041"
    INDEX 01 00:53:36
  TRACK 42 AUDIO
    TITLE "LR_black_phrase_S03_042"
    INDEX 01 00:54:37
  TRACK 43 AUDIO
    TITLE "LR_black_phrase_S03_043"
    INDEX 01 00:55:54
  TRACK 44 AUDIO
    TITLE "LR_black_phrase_S03_044"
    INDEX 01 00:56:21
  TRACK 45 AUDIO
    TITLE "LR_black_phrase_S03_045"
    INDEX 01 00:59:05
  TRACK 46 AUDIO
    TITLE "LR_black_phrase_S03_046"
    INDEX 01 01:00:03
  TRACK 47 AUDIO
    TITLE "LR_black_phrase_S03_047"
    INDEX 01 01:02:68
  TRACK 48 AUDIO
    TITLE "LR_black_phrase_S03_048"
    INDEX 01 01:03:32
  TRACK 49 AUDIO
    TITLE "LR_black_phrase_S03_049"
    INDEX 01 01:06:70
  TRACK 50 AUDIO
    TITLE "LR_black_phrase_S03_050"
    INDEX 01 01:07:24
  TRACK 51 AUDIO
    TITLE "LR_black_phrase_S03_051"
    INDEX 01 01:10:64
  TRACK 52 AUDIO
    TITLE "LR_black_phrase_S03_052"
    INDEX 01 01:11:67
  TRACK 53 AUDIO
    TITLE "LR_black_phrase_S03_053"
    INDEX 01 01:13:19
  TRACK 54 AUDIO
    TITLE "LR_black_phrase_S03_054"
    INDEX 01 01:13:60
  TRACK 55 AUDIO
    TITLE "LR_black_phrase_S03_055"
    INDEX 01 01:15:41
  TRACK 56 AUDIO
    TITLE "LR_black_phrase_S03_056"
    INDEX 01 01:16:41
  TRACK 57 AUDIO
    TITLE "LR_black_phrase_S03_057"
    INDEX 01 01:20:41
  TRACK 58 AUDIO
    TITLE "LR_black_phrase_S03_058"
    INDEX 01 01:21:05
  TRACK 59 AUDIO
    TITLE "LR_black_phrase_S03_059"
    INDEX 01 01:22:69
  TRACK 60 AUDIO
    TITLE "LR_black_phrase_S03_060"
    INDEX 01 01:23:25
  TRACK 61 AUDIO
    TITLE "LR_black_phrase_S03_061"
    INDEX 01 01:25:12
  TRACK 62 AUDIO
    TITLE "LR_black_phrase_S03_062"
    INDEX 01 01:26:20
  TRACK 63 AUDIO
    TITLE "LR_black_phrase_S03_063"
    INDEX 01 01:27:33
  TRACK 64 AUDIO
    TITLE "LR_black_phrase_S03_064"
    INDEX 01 01:27:68
  TRACK 65 AUDIO
    TITLE "LR_black_phrase_S03_065"
    INDEX 01 01:30:59
  TRACK 66 AUDIO
    TITLE "LR_black_phrase_S03_066"
    INDEX 01 01:31:58
  TRACK 67 AUDIO
    TITLE "LR_black_phrase_S03_067"
    INDEX 01 01:33:20
  TRACK 68 AUDIO
    TITLE "LR_black_phrase_S03_068"
    INDEX 01 01:33:59
  TRACK 69 AUDIO
    TITLE "LR_black_phrase_S03_069"
    INDEX 01 01:36:28
  TRACK 70 AUDIO
    TITLE "LR_black_phrase_S03_070"
    INDEX 01 01:36:59
  TRACK 71 AUDIO
    TITLE "LR_black_phrase_S03_071"
    INDEX 01 01:39:26
  TRACK 72 AUDIO
    TITLE "LR_black_phrase_S03_072"
    INDEX 01 01:40:30
  TRACK 73 AUDIO
    TITLE "LR_black_phrase_S03_073"
    INDEX 01 01:41:53
  TRACK 74 AUDIO
    TITLE "LR_black_phrase_S03_074"
    INDEX 01 01:42:13
  TRACK 75 AUDIO
    TITLE "LR_black_phrase_S03_075"
    INDEX 01 01:43:16
  TRACK 76 AUDIO
    TITLE "LR_black_phrase_S03_076"
    INDEX 01 01:44:16
  TRACK 77 AUDIO
    TITLE "LR_black_phrase_S03_077"
    INDEX 01 01:46:22
  TRACK 78 AUDIO
    TITLE "LR_black_phrase_S03_078"
    INDEX 01 01:46:52
  TRACK 79 AUDIO
    TITLE "LR_black_phrase_S03_079"
    INDEX 01 01:49:52
  TRACK 80 AUDIO
    TITLE "LR_black_phrase_S03_080"
    INDEX 01 01:49:74
  TRACK 81 AUDIO
    TITLE "LR_black_phrase_S03_081"
    INDEX 01 01:53:01
  TRACK 82 AUDIO
    TITLE "LR_black_phrase_S03_082"
    INDEX 01 01:54:04
  TRACK 83 AUDIO
    TITLE "LR_black_phrase_S03_083"
    INDEX 01 01:55:16
  TRACK 84 AUDIO
    TITLE "LR_black_phrase_S03_084"
    INDEX 01 01:55:55
  TRACK 85 AUDIO
    TITLE "LR_black_phrase_S03_085"
    INDEX 01 01:56:66
  TRACK 86 AUDIO
    TITLE "LR_black_phrase_S03_086"
    INDEX 01 01:57:63
  TRACK 87 AUDIO
    TITLE "LR_black_phrase_S03_087"
    INDEX 01 02:00:09
  TRACK 88 AUDIO
    TITLE "LR_black_phrase_S03_088"
    INDEX 01 02:00:48
  TRACK 89 AUDIO
    TITLE "LR_black_phrase_S03_089"
    INDEX 01 02:02:59
  TRACK 90 AUDIO
    TITLE "LR_black_phrase_S03_090"
    INDEX 01 02:03:15
  TRACK 91 AUDIO
    TITLE "LR_black_phrase_S03_091"
    INDEX 01 02:05:26
  TRACK 92 AUDIO
    TITLE "LR_black_phrase_S03_092"
    INDEX 01 02:06:33
  TRACK 93 AUDIO
    TITLE "LR_black_phrase_S03_093"
    INDEX 01 02:07:54
  TRACK 94 AUDIO
    TITLE "LR_black_phrase_S03_094"
    INDEX 01 02:08:20
  TRACK 95 AUDIO
    TITLE "LR_black_phrase_S03_095"
    INDEX 01 02:10:64
  TRACK 96 AUDIO
    TITLE "LR_black_phrase_S03_096"
    INDEX 01 02:11:65
  TRACK 97 AUDIO
    TITLE "LR_black_phrase_S03_097"
    INDEX 01 02:14:42
  TRACK 98 AUDIO
    TITLE "LR_black_phrase_S03_098"
    INDEX 01 02:15:10
  TRACK 99 AUDIO
    TITLE "LR_black_phrase_S03_099"
    INDEX 01 02:17:15
  TRACK 100 AUDIO
    TITLE "LR_black_phrase_S03_100"
    INDEX 01 02:17:45
  TRACK 101 AUDIO
    TITLE "LR_black_phrase_S03_101"
    INDEX 01 02:19:53
  TRACK 102 AUDIO
    TITLE "LR_black_phrase_S03_102"
    INDEX 01 02:20:53
  TRACK 103 AUDIO
    TITLE "LR_black_phrase_S03_103"
    INDEX 01 02:22:01
  TRACK 104 AUDIO
    TITLE "LR_black_phrase_S03_104"
    INDEX 01 02:22:34
  TRACK 105 AUDIO
    TITLE "LR_black_phrase_S03_105"
    INDEX 01 02:24:01
  TRACK 106 AUDIO
    TITLE "LR_black_phrase_S03_106"
    INDEX 01 02:25:01
  TRACK 107 AUDIO
    TITLE "LR_black_phrase_S03_107"
    INDEX 01 02:27:51
  TRACK 108 AUDIO
    TITLE "LR_black_phrase_S03_108"
    INDEX 01 02:28:09
  TRACK 109 AUDIO
    TITLE "LR_black_phrase_S03_109"
    INDEX 01 02:30:59
  TRACK 110 AUDIO
    TITLE "LR_black_phrase_S03_110"
    INDEX 01 02:31:03
  TRACK 111 AUDIO
    TITLE "LR_black_phrase_S03_111"
    INDEX 01 02:33:53
  TRACK 112 AUDIO
    TITLE "LR_black_phrase_S03_112"
    INDEX 01 02:34:49
  TRACK 113 AUDIO
    TITLE "LR_black_phrase_S03_113"
    INDEX 01 02:35:72
  TRACK 114 AUDIO
    TITLE "LR_black_phrase_S03_114"
    INDEX 01 02:36:32
  TRACK 115 AUDIO
    TITLE "LR_black_phrase_S03_115"
    INDEX 01 02:39:64
  TRACK 116 AUDIO
    TITLE "LR_black_phrase_S03_116"
    INDEX 01 02:40:61
  TRACK 117 AUDIO
    TITLE "LR_black_phrase_S03_117"
    INDEX 01 02:42:44
  TRACK 118 AUDIO
    TITLE "LR_black_phrase_S03_118"
    INDEX 01 02:43:05
  TRACK 119 AUDIO
    TITLE "LR_black_phrase_S03_119"
    INDEX 01 02:45:00
  TRACK 120 AUDIO
    TITLE "LR_black_phrase_S03_120"
    INDEX 01 02:45:19
  TRACK 121 AUDIO
    TITLE "LR_black_phrase_S03_121"
    INDEX 01 02:47:14
  TRACK 122 AUDIO
    TITLE "LR_black_phrase_S03_122"
    INDEX 01 02:48:16
  TRACK 123 AUDIO
    TITLE "LR_black_phrase_S03_123"
    INDEX 01 02:49:33
  TRACK 124 AUDIO
    TITLE "LR_black_phrase_S03_124"
    INDEX 01 02:49:72
  TRACK 125 AUDIO
    TITLE "LR_black_phrase_S03_125"
    INDEX 01 02:53:58
  TRACK 126 AUDIO
    TITLE "LR_black_phrase_S03_126"
    INDEX 01 02:54:57
  TRACK 127 AUDIO
    TITLE "LR_black_phrase_S03_127"
    INDEX 01 02:57:50
  TRACK 128 AUDIO
    TITLE "LR_black_phrase_S03_128"
    INDEX 01 02:58:16
  TRACK 129 AUDIO
    TITLE "LR_black_phrase_S03_129"
    INDEX 01 03:00:46
  TRACK 130 AUDIO
    TITLE "LR_black_phrase_S03_130"
    INDEX 01 03:01:05
  TRACK 131 AUDIO
    TITLE "LR_black_phrase_S03_131"
    INDEX 01 03:03:35
  TRACK 132 AUDIO
    TITLE "LR_black_phrase_S03_132"
    INDEX 01 03:04:40
  TRACK 133 AUDIO
    TITLE "LR_black_phrase_S03_133"
    INDEX 01 03:05:73
  TRACK 134 AUDIO
    TITLE "LR_black_phrase_S03_134"
    INDEX 01 03:06:37
  TRACK 135 AUDIO
    TITLE "LR_black_phrase_S03_135"
    INDEX 01 03:08:50
  TRACK 136 AUDIO
    TITLE "LR_black_phrase_S03_136"
    INDEX 01 03:09:47
  TRACK 137 AUDIO
    TITLE "LR_black_phrase_S03_137"
    INDEX 01 03:11:52
  TRACK 138 AUDIO
    TITLE "LR_black_phrase_S03_138"
    INDEX 01 03:12:18
  TRACK 139 AUDIO
    TITLE "LR_black_phrase_S03_139"
    INDEX 01 03:14:58
  TRACK 140 AUDIO
    TITLE "LR_black_phrase_S03_140"
    INDEX 01 03:15:09
  TRACK 141 AUDIO
    TITLE "LR_black_phrase_S03_141"
    INDEX 01 03:17:49
  TRACK 142 AUDIO
    TITLE "LR_black_phrase_S03_142"
    INDEX 01 03:18:42
  TRACK 143 AUDIO
    TITLE "LR_black_phrase_S03_143"
    INDEX 01 03:20:00
  TRACK 144 AUDIO
    TITLE "LR_black_phrase_S03_144"
    INDEX 01 03:20:31
  TRACK 145 AUDIO
    TITLE "LR_black_phrase_S03_145"
    INDEX 01 03:21:56
  TRACK 146 AUDIO
    TITLE "LR_black_phrase_S03_146"
    INDEX 01 03:22:58
  TRACK 147 AUDIO
    TITLE "LR_black_phrase_S03_147"
    INDEX 01 03:24:49
  TRACK 148 AUDIO
    TITLE "LR_black_phrase_S03_148"
    INDEX 01 03:25:07
  TRACK 149 AUDIO
    TITLE "LR_black_phrase_S03_149"
    INDEX 01 03:27:69
  TRACK 150 AUDIO
    TITLE "LR_black_phrase_S03_150"
    INDEX 01 03:28:17
  TRACK 151 AUDIO
    TITLE "LR_black_phrase_S03_151"
    INDEX 01 03:31:02
  TRACK 152 AUDIO
    TITLE "LR_black_phrase_S03_152"
    INDEX 01 03:32:01
  TRACK 153 AUDIO
    TITLE "LR_black_phrase_S03_153"
    INDEX 01 03:33:30
  TRACK 154 AUDIO
    TITLE "LR_black_phrase_S03_154"
    INDEX 01 03:33:63
  TRACK 155 AUDIO
    TITLE "LR_black_phrase_S03_155"
    INDEX 01 03:35:00
  TRACK 156 AUDIO
    TITLE "LR_black_phrase_S03_156"
    INDEX 01 03:35:74
  TRACK 157 AUDIO
    TITLE "LR_black_phrase_S03_157"
    INDEX 01 03:38:31
  TRACK 158 AUDIO
    TITLE "LR_black_phrase_S03_158"
    INDEX 01 03:38:66
  TRACK 159 AUDIO
    TITLE "LR_black_phrase_S03_159"
    INDEX 01 03:41:16
  TRACK 160 AUDIO
    TITLE "LR_black_phrase_S03_160"
    INDEX 01 03:41:37
  TRACK 161 AUDIO
    TITLE "LR_black_phrase_S03_161"
    INDEX 01 03:43:64
  TRACK 162 AUDIO
    TITLE "LR_black_phrase_S03_162"
    INDEX 01 03:44:67
  TRACK 163 AUDIO
    TITLE "LR_black_phrase_S03_163"
    INDEX 01 03:46:11
  TRACK 164 AUDIO
    TITLE "LR_black_phrase_S03_164"
    INDEX 01 03:46:52
  TRACK 165 AUDIO
    TITLE "LR_black_phrase_S03_165"
    INDEX 01 03:49:06
  TRACK 166 AUDIO
    TITLE "LR_black_phrase_S03_166"
    INDEX 01 03:50:05
  TRACK 167 AUDIO
    TITLE "LR_black_phrase_S03_167"
    INDEX 01 03:54:24
  TRACK 168 AUDIO
    TITLE "LR_black_phrase_S03_168"
    INDEX 01 03:54:64
  TRACK 169 AUDIO
    TITLE "LR_black_phrase_S03_169"
    INDEX 01 03:59:06
  TRACK 170 AUDIO
    TITLE "LR_black_phrase_S03_170"
    INDEX 01 03:59:35
  TRACK 171 AUDIO
    TITLE "LR_black_phrase_S03_171"
    INDEX 01 04:03:51
  TRACK 172 AUDIO
    TITLE "LR_black_phrase_S03_172"
    INDEX 01 04:04:54
  TRACK 173 AUDIO
    TITLE "LR_black_phrase_S03_173"
    INDEX 01 04:05:73
  TRACK 174 AUDIO
    TITLE "LR_black_phrase_S03_174"
    INDEX 01 04:06:37
  TRACK 175 AUDIO
    TITLE "LR_black_phrase_S03_175"
    INDEX 01 04:08:56
  TRACK 176 AUDIO
    TITLE "LR_black_phrase_S03_176"
    INDEX 01 04:09:55
  TRACK 177 AUDIO
    TITLE "LR_black_phrase_S03_177"
    INDEX 01 04:11:48
  TRACK 178 AUDIO
    TITLE "LR_black_phrase_S03_178"
    INDEX 01 04:12:12
  TRACK 179 AUDIO
    TITLE "LR_black_phrase_S03_179"
    INDEX 01 04:14:21
  TRACK 180 AUDIO
    TITLE "LR_black_phrase_S03_180"
    INDEX 01 04:14:51
  TRACK 181 AUDIO
    TITLE "LR_black_phrase_S03_181"
    INDEX 01 04:16:59
  TRACK 182 AUDIO
    TITLE "LR_black_phrase_S03_182"
    INDEX 01 04:17:57
  TRACK 183 AUDIO
    TITLE "LR_black_phrase_S03_183"
    INDEX 01 04:19:13
  TRACK 184 AUDIO
    TITLE "LR_black_phrase_S03_184"
    INDEX 01 04:19:46
  TRACK 185 AUDIO
    TITLE "LR_black_phrase_S03_185"
    INDEX 01 04:21:11
  TRACK 186 AUDIO
    TITLE "LR_black_phrase_S03_186"
    INDEX 01 04:22:13
  TRACK 187 AUDIO
    TITLE "LR_black_phrase_S03_187"
    INDEX 01 04:24:59
  TRACK 188 AUDIO
    TITLE "LR_black_phrase_S03_188"
    INDEX 01 04:25:17
  TRACK 189 AUDIO
    TITLE "LR_black_phrase_S03_189"
    INDEX 01 04:28:29
  TRACK 190 AUDIO
    TITLE "LR_black_phrase_S03_190"
    INDEX 01 04:28:55
  TRACK 191 AUDIO
    TITLE "LR_black_phrase_S03_191"
    INDEX 01 04:31:67
  TRACK 192 AUDIO
    TITLE "LR_black_phrase_S03_192"
    INDEX 01 04:32:68
  TRACK 193 AUDIO
    TITLE "LR_black_phrase_S03_193"
    INDEX 01 04:34:16
  TRACK 194 AUDIO
    TITLE "LR_black_phrase_S03_194"
    INDEX 01 04:34:49
  TRACK 195 AUDIO
    TITLE "LR_black_phrase_S03_195"
    INDEX 01 04:35:57
  TRACK 196 AUDIO
    TITLE "LR_black_phrase_S03_196"
    INDEX 01 04:36:60
  TRACK 197 AUDIO
    TITLE "LR_black_phrase_S03_197"
    INDEX 01 04:38:22
  TRACK 198 AUDIO
    TITLE "LR_black_phrase_S03_198"
    INDEX 01 04:38:57
  TRACK 199 AUDIO
    TITLE "LR_black_phrase_S03_199"
    INDEX 01 04:40:68
  TRACK 200 AUDIO
    TITLE "LR_black_phrase_S03_200"
    INDEX 01 04:41:12
  TRACK 201 AUDIO
    TITLE "LR_black_phrase_S03_201"
    INDEX 01 04:43:21
